# xmcd
#
# Track frame offsets: 
#        150
#        1837
#        20483
#        25039
#        31495
#        39997
#        55796
#        64805
#        68295
#        86829
#        108284
#        118265
#        134985
#        153870
#        173068
#        184212
#        204016
#        211447
#        229637
#        239457
#        243512
#        271998
#        293350
#        294559
#        310737
#
# Disc length: 4389 seconds
#
# Revision: 0
# Processed by: cddbd v1.5.2PL0 Copyright (c) Steve Scherf et al.
# Submitted via: ExactAudioCopy v0.99pb4
#
DISCID=54112319
DTITLE=Chinese Mike Presents - The Bay Area Block Stars
DYEAR=2004
DGENRE=Rap
TTITLE0=Jacka Intro
TTITLE1=The Dope Game
TTITLE2=Interview Part I
TTITLE3=Get This Money
TTITLE4=Termites In Ya Casket
TTITLE5=How We Slide
TTITLE6=The Streets Is Ours
TTITLE7=Interview Part II
TTITLE8=Bay Music
TTITLE9=Bay Area Block Starz
TTITLE10=Nobody Listens
TTITLE11=New Bay
TTITLE12=4 Minute Off The Some Freestyle II
TTITLE13=4 Minute Off The Some Freestyle III
TTITLE14=Streets Is Talkin'
TTITLE15=Barney
TTITLE16=It's Not Right
TTITLE17=Love Me
TTITLE18=Get It or Get Wit' It
TTITLE19=Interview Part III
TTITLE20=122+2
TTITLE21=The Beef, Hood and Glory
TTITLE22=Jacka Outro
TTITLE23=The Bay Area
TTITLE24=Da Mob and The Killa Squad (Bonus Track)
EXTD=
EXTT0=
EXTT1=
EXTT2=
EXTT3=
EXTT4=
EXTT5=
EXTT6=
EXTT7=
EXTT8=
EXTT9=
EXTT10=
EXTT11=
EXTT12=
EXTT13=
EXTT14=
EXTT15=
EXTT16=
EXTT17=
EXTT18=
EXTT19=
EXTT20=
EXTT21=
EXTT22=
EXTT23=
EXTT24=
PLAYORDER=
